<svg width="18" height="19" viewBox="0 0 18 19" fill="none" xmlns="http://www.w3.org/2000/svg">
<path d="M15.2222 1.02637H2.77778C2.30628 1.02637 1.8541 1.22599 1.5207 1.58132C1.1873 1.93665 1 2.41859 1 2.9211V16.1843C1 16.6868 1.1873 17.1687 1.5207 17.524C1.8541 17.8794 2.30628 18.079 2.77778 18.079H15.2222C15.6937 18.079 16.1459 17.8794 16.4793 17.524C16.8127 17.1687 17 16.6868 17 16.1843V2.9211C17 2.41859 16.8127 1.93665 16.4793 1.58132C16.1459 1.22599 15.6937 1.02637 15.2222 1.02637Z" stroke="#071C87" stroke-width="1.5" stroke-linecap="round" stroke-linejoin="round"/>
<path d="M4.55566 4.81592H13.4446" stroke="#071C87" stroke-width="1.5" stroke-linecap="round" stroke-linejoin="round"/>
<path d="M4.55566 9.55273H13.4446" stroke="#071C87" stroke-width="1.5" stroke-linecap="round" stroke-linejoin="round"/>
<path d="M4.55566 14.2896H9.889" stroke="#071C87" stroke-width="1.5" stroke-linecap="round" stroke-linejoin="round"/>
</svg>
