<svg width="24" height="22" viewBox="0 0 24 22" fill="none" xmlns="http://www.w3.org/2000/svg">
<path d="M12.279 1.53031C12.0999 1.46453 11.9001 1.46453 11.721 1.53031L2.769 4.81244L6.375 6.13381L15.606 2.74994L12.279 1.53031ZM17.625 3.49106L8.394 6.87494L12 8.19631L21.231 4.81244L17.625 3.49106ZM22.5 5.82856L12.75 9.40356V20.2963L22.5 16.7213V5.82994V5.82856ZM11.25 20.2977V9.40219L1.5 5.82856V16.7227L11.25 20.2977ZM11.1645 0.252938C11.7008 0.0563122 12.2992 0.0563122 12.8355 0.252938L23.529 4.17444C23.668 4.22551 23.7872 4.31358 23.8711 4.42729C23.9551 4.541 24 4.67514 24 4.81244V16.7227C23.9998 16.9974 23.9098 17.2658 23.7417 17.4933C23.5735 17.7207 23.3348 17.8968 23.0565 17.9987L12.279 21.9504C12.0999 22.0162 11.9001 22.0162 11.721 21.9504L0.945 17.9987C0.666377 17.897 0.427414 17.721 0.258963 17.4936C0.0905126 17.2661 0.000309494 16.9976 0 16.7227L0 4.81244C3.48599e-05 4.67514 0.0449156 4.541 0.128861 4.42729C0.212805 4.31358 0.331969 4.22551 0.471 4.17444L11.1645 0.252938Z" fill="#071C87"/>
</svg>
