<svg width="25" height="26" viewBox="0 0 25 26" fill="none" xmlns="http://www.w3.org/2000/svg">
<path d="M16.3337 24.8833H8.66699V13.7371C8.66699 13.5259 8.74777 13.3234 8.89154 13.1741C9.03532 13.0248 9.23033 12.9409 9.43366 12.9409H15.567C15.7703 12.9409 15.9654 13.0248 16.1091 13.1741C16.2529 13.3234 16.3337 13.5259 16.3337 13.7371V24.8833Z" stroke="#071C87" stroke-width="1.5" stroke-linecap="round" stroke-linejoin="round"/>
<path d="M23.233 24.8835H16.333V21.0354C16.333 20.8243 16.4138 20.6218 16.5576 20.4724C16.7013 20.3231 16.8963 20.2393 17.0997 20.2393H23.233C23.4364 20.2393 23.6314 20.3231 23.7751 20.4724C23.9189 20.6218 23.9997 20.8243 23.9997 21.0354V24.0873C23.9997 24.2985 23.9189 24.501 23.7751 24.6503C23.6314 24.7996 23.4364 24.8835 23.233 24.8835V24.8835Z" stroke="#071C87" stroke-width="1.5" stroke-linecap="round" stroke-linejoin="round"/>
<path d="M8.66669 24.8835V18.3816C8.66669 18.1705 8.58592 17.9679 8.44214 17.8186C8.29836 17.6693 8.10336 17.5854 7.90002 17.5854H1.76667C1.56334 17.5854 1.36833 17.6693 1.22455 17.8186C1.08077 17.9679 1 18.1705 1 18.3816V24.0874C1 24.2985 1.08077 24.5011 1.22455 24.6504C1.36833 24.7997 1.56334 24.8835 1.76667 24.8835H8.66669V24.8835Z" stroke="#071C87" stroke-width="1.5" stroke-linecap="round" stroke-linejoin="round"/>
<path d="M10.974 3.80252L12.1355 1.24553C12.1669 1.17244 12.218 1.11034 12.2826 1.06677C12.3472 1.02319 12.4226 1 12.4997 1C12.5768 1 12.6522 1.02319 12.7168 1.06677C12.7814 1.11034 12.8325 1.17244 12.8639 1.24553L14.0266 3.80252L16.6231 4.2152C16.9566 4.26828 17.0895 4.71412 16.848 4.96889L14.9697 6.95929L15.413 9.76972C15.4693 10.1306 15.1217 10.4066 14.8227 10.2355L12.4997 8.90854L10.1767 10.2355C9.87897 10.4053 9.53013 10.1306 9.58636 9.76972L10.0297 6.95929L8.15141 4.96889C7.90863 4.71412 8.04279 4.26828 8.37502 4.2152L10.974 3.80385V3.80252Z" stroke="#071C87" stroke-width="1.5" stroke-linecap="round" stroke-linejoin="round"/>
</svg>
